<svg width="61" height="47" viewBox="0 0 61 47" fill="none" xmlns="http://www.w3.org/2000/svg">
<mask id="mask0_1_3351" style="mask-type:luminance" maskUnits="userSpaceOnUse" x="1" y="0" width="59" height="35">
<path d="M1.50293 0H59.99V34.5098H1.50293V0Z" fill="white"/>
</mask>
<g mask="url(#mask0_1_3351)">
<mask id="mask1_1_3351" style="mask-type:luminance" maskUnits="userSpaceOnUse" x="1" y="-9" width="59" height="52">
<path d="M15.175 -8.408L59.9833 0.0344515L46.3562 42.9159L1.54785 34.474L15.175 -8.408Z" fill="white"/>
</mask>
<g mask="url(#mask1_1_3351)">
<mask id="mask2_1_3351" style="mask-type:luminance" maskUnits="userSpaceOnUse" x="1" y="-9" width="59" height="52">
<path d="M15.175 -8.408L59.9833 0.0344515L46.3562 42.9159L1.54785 34.474L15.175 -8.408Z" fill="white"/>
</mask>
<g mask="url(#mask2_1_3351)">
<path d="M59.9341 0.0239334L28.1265 0.0530931C26.1616 0.0545271 24.1396 0.558368 22.2895 1.491L15.2791 4.75975C15.2772 4.76023 15.2754 4.76119 15.2735 4.76215L15.253 4.77171C14.5844 5.08242 13.9356 5.44811 13.3166 5.86591C11.1264 7.34541 9.55318 9.31536 8.88641 11.4129L6.28638 19.5953L7.80368 20.2311L5.78475 21.1743L1.55566 34.4821L33.3632 34.4529C35.1375 34.4515 36.9578 34.0404 38.6564 33.2741V33.2746L38.6893 33.2593C38.8017 33.2077 38.914 33.1556 39.0258 33.1011L45.6531 29.9886L45.6513 29.9891C46.5266 29.6301 47.3747 29.1784 48.1725 28.6396C50.3627 27.1606 51.9359 25.1907 52.6027 23.0931L55.2033 14.9102L53.686 14.2749L55.705 13.3313L59.9334 0.0239334H59.9341Z" fill="#168E6A"/>
</g>
</g>
</g>
<mask id="mask3_1_3351" style="mask-type:luminance" maskUnits="userSpaceOnUse" x="10" y="0" width="49" height="31">
<path d="M10.5625 0.979012H58.4011V30.1043H10.5625V0.979012Z" fill="white"/>
</mask>
<g mask="url(#mask3_1_3351)">
<mask id="mask4_1_3351" style="mask-type:luminance" maskUnits="userSpaceOnUse" x="1" y="-9" width="59" height="52">
<path d="M15.176 -8.40799L59.9843 0.0344591L46.3571 42.9159L1.54883 34.474L15.176 -8.40799Z" fill="white"/>
</mask>
<g mask="url(#mask4_1_3351)">
<mask id="mask5_1_3351" style="mask-type:luminance" maskUnits="userSpaceOnUse" x="1" y="-9" width="59" height="52">
<path d="M15.176 -8.40799L59.9843 0.0344591L46.3571 42.9159L1.54883 34.474L15.176 -8.40799Z" fill="white"/>
</mask>
<g mask="url(#mask5_1_3351)">
<path d="M40.2061 10.1691L28.7245 8.20058L41.8749 13.7801L42.8136 10.8264L53.7483 15.4059L51.3786 22.8626C50.1257 26.8035 45.3913 30.0015 40.8021 30.0053L10.6025 30.0331L14.0661 19.135L27.5356 24.5988L28.7239 20.8597L40.2049 22.8282L27.0545 17.2487L26.1158 20.2024L15.1818 15.6229L17.5515 8.16616C18.8037 4.2253 23.5387 1.02729 28.1273 1.02347L58.3269 0.995743L54.8639 11.8933L41.3944 6.42996L40.2061 10.1691Z" fill="white"/>
</g>
</g>
</g>
<path d="M8.02607 46.0961H7.60391L7.51203 46.1764H9.08645C9.07962 46.1817 9.07279 46.1869 9.06658 46.1917C9.05975 46.197 9.04982 46.2046 9.03678 46.2147H6.60562C6.57085 46.2414 6.53422 46.2682 6.49635 46.295C6.45786 46.3217 6.41813 46.348 6.37715 46.3734H7.1296L6.9955 46.4537H8.39609L8.31414 46.4938H7.70821C7.69952 46.4991 7.6871 46.5044 7.67096 46.5091C7.6542 46.5144 7.63868 46.522 7.62378 46.5321H6.93341L6.64535 46.6525H7.04765C6.95825 46.6846 6.86885 46.7128 6.77945 46.7367C6.69005 46.7596 6.59693 46.7845 6.50132 46.8112H6.1313C5.89787 46.8638 5.64333 46.903 5.36893 46.9298H5.41859C5.30933 46.9398 5.19572 46.9475 5.07838 46.9527C4.96228 46.9575 4.84557 46.9604 4.72823 46.9604C4.5991 46.9604 4.47059 46.9575 4.34332 46.9527C4.21543 46.9475 4.09374 46.9398 3.97827 46.9298H3.93605C3.64116 46.903 3.37731 46.8638 3.14388 46.8112H3.51389C3.41083 46.7845 3.31523 46.7596 3.22583 46.7367C3.13643 46.7128 3.04703 46.6846 2.95763 46.6525H2.55533C2.50691 46.631 2.4591 46.6114 2.4113 46.5933C2.36287 46.5741 2.31507 46.5541 2.26727 46.5321H2.96756L2.88561 46.4938H3.49402C3.48533 46.4824 3.47478 46.4742 3.46174 46.469C3.44808 46.4642 3.43505 46.4589 3.42201 46.4537H2.01893C1.99224 46.4436 1.96803 46.4307 1.94692 46.4154C1.92705 46.3992 1.90594 46.3848 1.88484 46.3734H1.12246C1.08955 46.348 1.05417 46.3217 1.01568 46.295C0.977805 46.2682 0.941176 46.2414 0.90641 46.2147H3.33758C3.33075 46.2046 3.32392 46.197 3.31771 46.1917C3.31088 46.1869 3.30405 46.1817 3.29784 46.1764H1.72094C1.69238 46.1549 1.66506 46.1281 1.63899 46.0961H2.06115C2.05432 46.0861 2.04687 46.0784 2.0388 46.0732C2.03197 46.0684 2.02514 46.0631 2.01893 46.0579H3.30778L3.21589 45.9374H2.5752L2.5454 45.8992H1.09266C1.08645 45.8777 1.07652 45.8581 1.06286 45.8399C1.04796 45.8208 1.0343 45.8007 1.02064 45.7787H1.711L1.64892 45.6602H1.40059L1.38072 45.62H1.49496C1.48813 45.5999 1.48068 45.5808 1.47261 45.5626C1.46578 45.5435 1.45895 45.5234 1.45274 45.5015H1.37079C1.37079 45.4799 1.36893 45.4603 1.36582 45.4422C1.3621 45.4231 1.35713 45.4035 1.35092 45.3829H1.26649C1.26649 45.3614 1.26463 45.3427 1.26152 45.3274C1.2578 45.3112 1.25656 45.2926 1.25656 45.272V45.2644H1.24662C1.24662 45.2529 1.24787 45.2448 1.25159 45.2395C1.25469 45.2347 1.25656 45.2295 1.25656 45.2242H1.49496C1.52786 45.1391 1.59988 45.0961 1.711 45.0961H3.66786C3.77712 45.0961 3.85907 45.1071 3.9137 45.1286C3.96958 45.1506 4.03166 45.1821 4.09995 45.2242H3.86404L3.87397 45.2318C3.88701 45.2371 3.8988 45.2424 3.90874 45.2471C3.91991 45.2524 3.92922 45.2581 3.93605 45.2644H3.94599C4.03539 45.3169 4.14527 45.3561 4.27627 45.3829H4.36815C4.45755 45.4035 4.57737 45.4135 4.72823 45.4135C4.81763 45.4135 4.9002 45.4111 4.97656 45.4058C5.0523 45.4011 5.11811 45.3934 5.17274 45.3829H5.14046C5.29939 45.3561 5.39935 45.3169 5.44094 45.2644H5.41859C5.43349 45.2428 5.44094 45.2295 5.44094 45.2242H5.54276L5.55269 45.1917C5.55269 45.1448 5.52848 45.1028 5.48068 45.0655H5.39873C5.33726 45.0186 5.22738 44.979 5.06845 44.9469H5.03865C4.97718 44.9307 4.90517 44.9159 4.8226 44.903C4.73941 44.8891 4.6438 44.8771 4.53453 44.8666H4.47245L4.05029 44.8188C4.00186 44.814 3.95592 44.8088 3.91122 44.8035C3.86652 44.7988 3.81996 44.7935 3.77216 44.7882C3.48906 44.7514 3.21713 44.6984 2.95763 44.6295H2.77138C2.67515 44.6028 2.58575 44.576 2.50318 44.5492H2.35915C2.32438 44.5392 2.28962 44.5277 2.25485 44.5148C2.22132 44.5009 2.1878 44.4861 2.15303 44.4708H1.25656C1.20813 44.4493 1.16343 44.4297 1.12246 44.4115C1.08148 44.3924 1.04051 44.3724 1.00078 44.3504H2.91541C2.88065 44.3303 2.84712 44.3112 2.81608 44.293C2.78628 44.2739 2.754 44.2538 2.71923 44.2318H0.670495C0.649387 44.2218 0.630141 44.2089 0.613379 44.1936C0.597237 44.1773 0.581096 44.1639 0.566196 44.1534H1.10259C1.04175 44.0999 0.982772 44.0473 0.926276 43.9947H1.08273L1.02064 43.9144H0.0322831C0.0242124 43.9044 0.0167624 43.8967 0.00993326 43.8915C0.00372505 43.8867 0 43.8814 0 43.8762H2.34922C2.33556 43.8546 2.3219 43.835 2.307 43.8169C2.29334 43.7978 2.2803 43.7777 2.26727 43.7557H0.46438L0.402297 43.6371H1.85504L1.83517 43.597H1.40059L1.38072 43.5587H1.58684C1.58684 43.5473 1.58498 43.5391 1.58187 43.5339C1.57815 43.5291 1.5769 43.5239 1.5769 43.5186H1.53469L1.50489 43.4383H1.44281L1.43287 43.3599H1.41052V43.3197H1.08273C1.07652 43.3097 1.07279 43.2968 1.07279 43.2815C1.07279 43.2652 1.07279 43.2519 1.07279 43.2413H0.772311L0.762378 43.161H1.93699C1.93016 43.151 1.92705 43.1381 1.92705 43.1228C1.92705 43.1065 1.92705 43.0931 1.92705 43.0826H2.09095V43.0731C2.09095 43.0477 2.09095 43.0214 2.09095 42.9947C2.09095 42.9679 2.09406 42.9445 2.10088 42.9239H1.65885C1.66506 42.9024 1.66879 42.8828 1.66879 42.8647C1.66879 42.8455 1.67189 42.8255 1.67872 42.8035H2.40137C2.40137 42.7934 2.40261 42.7858 2.40633 42.7805C2.40944 42.7757 2.4113 42.7705 2.4113 42.7652H1.67872C1.69362 42.7337 1.70107 42.7069 1.70107 42.6849H1.58684L1.61664 42.6065H1.44281C1.46267 42.5482 1.48626 42.4951 1.51482 42.4478H1.59677L1.63899 42.3675H1.75074L1.8451 42.249H1.7408C1.76191 42.2274 1.78116 42.2078 1.79792 42.1897C1.81406 42.1706 1.8302 42.151 1.8451 42.1304H1.76315L1.88484 42.0118H2.10088C2.10896 42.0004 2.11641 41.9922 2.12323 41.987C2.12944 41.9822 2.13627 41.977 2.1431 41.9717H1.85504C1.88111 41.9502 1.90843 41.9306 1.93699 41.9124C1.96492 41.8933 1.99224 41.8737 2.01893 41.8531H2.18532C2.22629 41.8264 2.26727 41.7986 2.307 41.769C2.34797 41.7399 2.39267 41.715 2.4411 41.6944H2.62735C2.66832 41.6729 2.70992 41.6533 2.75151 41.6352C2.79249 41.616 2.83719 41.596 2.88561 41.574H2.85333C2.86823 41.5639 2.88561 41.5563 2.90548 41.551C2.92659 41.5462 2.94397 41.541 2.95763 41.5357H2.8136C2.82663 41.5243 2.8434 41.5161 2.86326 41.5109C2.88437 41.5061 2.90548 41.5008 2.92534 41.4956H2.82353C2.91914 41.464 3.02033 41.4344 3.12649 41.4076C3.2339 41.3809 3.34254 41.3574 3.45181 41.3369H3.60577C3.76471 41.3101 3.93109 41.2891 4.10492 41.2738C4.27999 41.2575 4.46376 41.2489 4.65622 41.2489C5.02002 41.2489 5.36396 41.2786 5.68679 41.3369H5.54276C5.76253 41.3742 5.97548 41.4267 6.18097 41.4956H6.27534C6.2952 41.5008 6.31507 41.5061 6.33494 41.5109C6.35604 41.5161 6.37777 41.5243 6.3995 41.5357H6.54353C6.55657 41.541 6.57333 41.5462 6.5932 41.551C6.61431 41.5563 6.63169 41.5639 6.64535 41.574H6.67763C6.72544 41.596 6.772 41.616 6.8167 41.6352C6.8614 41.6533 6.90362 41.6729 6.94335 41.6944H6.76952C6.82415 41.715 6.87382 41.7399 6.91852 41.769C6.96321 41.7986 7.00605 41.8264 7.04765 41.8531H6.89368L7.05758 41.9717H7.34565L7.39779 42.0118H7.18175C7.20968 42.0324 7.23514 42.052 7.25873 42.0711C7.28356 42.0893 7.30591 42.1089 7.32578 42.1304H7.40773L7.53189 42.249H7.62378L7.71814 42.3675H7.60391C7.62378 42.3943 7.64116 42.421 7.65606 42.4478H7.57411C7.59398 42.4736 7.61012 42.4994 7.62378 42.5262C7.63868 42.553 7.65233 42.5797 7.66599 42.6065H7.83983C7.85472 42.6385 7.86217 42.6648 7.86217 42.6849H7.98634C7.99255 42.6954 7.99627 42.7088 7.99627 42.7251C7.99627 42.7404 7.99938 42.7537 8.00621 42.7652H8.7363V42.8035H8.07822C8.08443 42.8255 8.08816 42.8546 8.08816 42.8914V42.9239H7.70821C7.67965 43.0186 7.61136 43.0654 7.50209 43.0654H5.44094C5.34471 43.0654 5.26711 43.0554 5.20751 43.0348C5.14915 43.0133 5.08955 42.9813 5.02871 42.9392L4.99643 42.9239H5.37886C5.34409 42.9024 5.29505 42.8799 5.23234 42.857C5.17088 42.8331 5.09204 42.8149 4.99643 42.8035H4.62642C4.48238 42.8202 4.38305 42.8603 4.32842 42.9239H4.77045C4.75058 42.956 4.74065 42.987 4.74065 43.0176C4.74065 43.0444 4.74375 43.0664 4.75058 43.0826H4.59662C4.60282 43.1084 4.63014 43.1343 4.67857 43.161H3.51389C3.55487 43.1878 3.62688 43.2146 3.72994 43.2413H4.02794C4.08381 43.2566 4.15086 43.2715 4.22908 43.2853C4.30855 43.2982 4.39298 43.3097 4.48238 43.3197H4.81266C4.8673 43.325 4.92503 43.3307 4.9865 43.3369C5.0492 43.3422 5.11439 43.3498 5.18268 43.3599H5.19261C5.30995 43.3704 5.42356 43.3824 5.53283 43.3962C5.64209 43.4091 5.74515 43.423 5.84324 43.4383H5.90284C5.98541 43.4498 6.06239 43.4622 6.13379 43.4746C6.20642 43.4875 6.27782 43.5023 6.34735 43.5186H6.38709C6.42185 43.5239 6.45227 43.5291 6.47897 43.5339C6.50691 43.5391 6.53484 43.5473 6.5634 43.5587H6.36722C6.39516 43.564 6.42061 43.5693 6.4442 43.574C6.46904 43.5793 6.49449 43.587 6.52118 43.597H6.95576C6.97563 43.6022 6.99674 43.608 7.02033 43.6142C7.04516 43.6195 7.06813 43.6271 7.08986 43.6371H5.63712C5.77433 43.6792 5.88359 43.7189 5.96492 43.7557H7.76781C7.80878 43.7777 7.85038 43.7978 7.89197 43.8169C7.93295 43.835 7.97144 43.8546 8.00621 43.8762H5.65699C5.67003 43.8814 5.68307 43.8867 5.69672 43.8915C5.71162 43.8967 5.72218 43.9044 5.72901 43.9144H6.71737C6.73847 43.9259 6.75958 43.9393 6.77945 43.9546C6.80056 43.9699 6.81794 43.9832 6.8316 43.9947H6.67763C6.7453 44.042 6.80304 44.0951 6.85147 44.1534H6.31507C6.32997 44.1639 6.34363 44.1773 6.35729 44.1936C6.37032 44.2089 6.38026 44.2218 6.38709 44.2318H8.42837L8.52025 44.3504H6.60562C6.61865 44.3724 6.63169 44.3924 6.64535 44.4115C6.65839 44.4297 6.66894 44.4493 6.67763 44.4708H7.56169L7.59398 44.5492H7.73801L7.76781 44.6295H7.95406C7.96709 44.6501 7.97517 44.6749 7.97889 44.7041C7.98386 44.7337 7.98944 44.7615 7.99627 44.7882L8.00621 44.8666H8.06829C8.0745 44.8771 8.07822 44.8905 8.07822 44.9068C8.07822 44.9221 8.07822 44.9355 8.07822 44.9469H8.10802V45.0655H8.20239V45.0884C8.20239 45.1104 8.20053 45.1319 8.19742 45.1534C8.1937 45.174 8.19246 45.1974 8.19246 45.2242H8.08816V45.2644H8.10802C8.10802 45.2849 8.10616 45.3045 8.10306 45.3236C8.09933 45.3418 8.09437 45.3614 8.08816 45.3829H8.11796L8.08816 45.5015H8.17011C8.16328 45.5234 8.15645 45.5435 8.15024 45.5626C8.14341 45.5808 8.13286 45.5999 8.11796 45.62H8.00621C8.00621 45.6253 8.00434 45.631 8.00124 45.6372C7.99752 45.6425 7.99627 45.6501 7.99627 45.6602H8.24212L8.18004 45.7787H7.48968C7.48285 45.8007 7.47043 45.8208 7.45243 45.8399C7.43567 45.8581 7.42077 45.8777 7.40773 45.8992H8.86047L8.83067 45.9374H9.45895C9.44529 45.9594 9.42977 45.9795 9.41176 45.9986C9.395 46.0168 9.37576 46.0364 9.35465 46.0579H8.06829C8.06146 46.0631 8.05401 46.0684 8.04594 46.0732C8.03911 46.0784 8.03228 46.0861 8.02607 46.0961ZM5.34658 42.8035H5.65699C5.63526 42.7987 5.61229 42.7958 5.58746 42.7958C5.56387 42.7958 5.53903 42.7958 5.51296 42.7958C5.4844 42.7958 5.45646 42.7958 5.42853 42.7958C5.40183 42.7958 5.37451 42.7987 5.34658 42.8035Z" fill="#FFBD59"/>
<path d="M14.8879 44.1916H16.8249V44.2318H16.2985V44.3905H15.4641V44.5492H15.392V44.5894H15.4839V44.7481H14.9177V44.7882C14.9177 44.8088 14.9159 44.8284 14.9128 44.8475C14.909 44.8657 14.9078 44.8852 14.9078 44.9068H15.32C15.32 44.9273 15.3182 44.9469 15.3151 44.966C15.3113 44.9852 15.3101 45.0052 15.3101 45.0253H15.0916L15.0618 45.184H15.2257C15.2188 45.1945 15.2157 45.2079 15.2157 45.2242C15.2157 45.2395 15.212 45.2529 15.2058 45.2643H15.33C15.3231 45.2901 15.3157 45.316 15.3076 45.3427C15.3008 45.3695 15.294 45.3963 15.2877 45.423H15.2977C15.2908 45.4488 15.284 45.4747 15.2778 45.5014C15.271 45.5282 15.261 45.555 15.248 45.5817H15.2877C15.2877 45.587 15.2809 45.5999 15.2679 45.62H15.32C15.3051 45.6467 15.2908 45.6735 15.2778 45.7003C15.2642 45.7271 15.2511 45.7533 15.2381 45.7787H15.2058L15.1238 45.8991H15.104L15.0096 46.0177H15.0419C15.0202 46.0383 14.9984 46.0579 14.9773 46.077C14.9575 46.0951 14.9407 46.1147 14.9277 46.1362H14.8035C14.7768 46.1683 14.7495 46.1946 14.7215 46.2146H14.6297L14.4757 46.3351H14.4956L14.4335 46.3734H13.7531L13.691 46.4135H13.7531L13.619 46.4938H14.2472L14.1653 46.5321H14.6917C14.6284 46.5588 14.5663 46.5856 14.5055 46.6124C14.444 46.6391 14.3789 46.6654 14.3093 46.6908H14.1032C14.0833 46.6975 14.0622 46.7032 14.0411 46.708C14.0213 46.7132 14.0001 46.7209 13.979 46.7309H14.3813C14.3546 46.7362 14.3304 46.7419 14.3093 46.7481C14.2895 46.7534 14.2683 46.761 14.2472 46.7711H12.8889C12.8404 46.7864 12.787 46.8012 12.7274 46.815C12.6691 46.828 12.6095 46.8394 12.5486 46.8495H13.5892C13.4998 46.8662 13.4085 46.881 13.316 46.8934C13.2229 46.9073 13.1285 46.9193 13.0329 46.9298H11.7863C11.6751 46.9398 11.559 46.9475 11.4386 46.9527C11.3194 46.9575 11.2015 46.9604 11.086 46.9604C10.9618 46.9604 10.8407 46.9575 10.7234 46.9527C10.6073 46.9475 10.4906 46.9398 10.3733 46.9298H11.6199C11.5237 46.9193 11.4293 46.9073 11.3368 46.8934C11.2437 46.881 11.153 46.8662 11.0636 46.8495H10.0231C9.96166 46.8394 9.90268 46.828 9.8468 46.815C9.79217 46.8012 9.73754 46.7864 9.6829 46.7711H11.0338C11.0121 46.761 10.9891 46.7534 10.9643 46.7481C10.9407 46.7419 10.9196 46.7362 10.8997 46.7309H10.4974L10.3832 46.6908H10.6017C10.5322 46.6654 10.4658 46.6391 10.4031 46.6124C10.3416 46.5856 10.2801 46.5588 10.2193 46.5321H9.70525C9.69035 46.522 9.67794 46.5144 9.668 46.5091C9.65807 46.5043 9.64627 46.4991 9.63324 46.4938H9.00248C8.97578 46.4823 8.95157 46.469 8.93046 46.4537C8.91059 46.4384 8.88948 46.425 8.86838 46.4135H8.80878L8.74669 46.3734H9.42712L9.36504 46.3351H9.35262L9.19866 46.2146H9.30296L9.20859 46.1362H9.32282L9.22101 46.0177H9.18872L9.09684 45.8991H9.11671C9.10305 45.8776 9.09063 45.858 9.07946 45.8399C9.06953 45.8208 9.05773 45.8007 9.04469 45.7787H9.06456C9.0509 45.7533 9.03724 45.7271 9.02234 45.7003C9.00868 45.6735 8.99565 45.6467 8.98261 45.62H8.94288L8.92053 45.5817H8.88079C8.85224 45.5335 8.83175 45.4804 8.81871 45.423H8.79636C8.78953 45.3963 8.7827 45.3695 8.77649 45.3427C8.76966 45.316 8.76284 45.2901 8.75663 45.2643H8.80878C8.80009 45.2529 8.79636 45.2395 8.79636 45.2242C8.79636 45.2079 8.79264 45.1945 8.78643 45.184H8.85844L8.83858 45.0253H8.85844C8.85161 45.0052 8.84851 44.9852 8.84851 44.966C8.84851 44.9469 8.84851 44.9273 8.84851 44.9068H8.76656V44.7481H8.31211V44.5894H7.93217V44.5492H8.26245V44.3905H9.12664V44.2318H10.1895V44.1916H9.35262V44.0731H9.05463V43.9545H8.69454V43.836H8.26245V43.6773H8.69454V43.4H8.80878V43.3197H8.85844V43.2796H8.89073V43.1208H8.79636V43.0425H8.84851V43.0023H8.69454V42.8436H8.58031V42.7652H7.78813V42.6849H6.85938V42.6065H9.39484V42.5663H8.64239V42.4076H8.81871V42.3273H8.70448V42.2088H9.82694V42.0501H8.14822V42.0118H9.30296V41.9315H8.73676V41.8531H8.49836V41.7728H9.26074V41.6141H8.80878V41.574H8.78643V41.5434C8.78643 41.5013 8.79388 41.4721 8.80878 41.4554H8.74669C8.7945 41.3713 8.87955 41.3292 9.00248 41.3292H11.0239C11.1394 41.3292 11.2213 41.3713 11.2697 41.4554H11.3318C11.3529 41.4774 11.3641 41.5065 11.3641 41.5434V41.574H11.384V41.6141H11.8359V41.7728H11.0736V41.8531H11.312V41.9315H11.8782V42.0118H10.7234V42.0501H12.4046V42.2088H11.2797V42.3273H11.3939V42.4076H11.2176V42.5663H12.7945V42.4076H12.8889V42.3273H13.3731V42.2088H14.1752V42.0501H13.311V42.0118H12.6306V41.9315H12.7846V41.8531H13.5991V41.7728H13.1049V41.6141H12.8764V41.574H12.6604V41.5434C12.6604 41.5013 12.6678 41.4721 12.6827 41.4554H12.9087C12.9565 41.3713 13.0428 41.3292 13.167 41.3292H15.1859C15.3101 41.3292 15.3958 41.3713 15.4442 41.4554H15.2058C15.2269 41.4774 15.2381 41.5065 15.2381 41.5434V41.574H15.4541V41.6141H15.6801V41.7728H16.1743V41.8531H15.3598V41.9315H15.2058V42.0118H15.8862V42.0501H16.7504V42.2088H15.9483V42.3273H15.4641V42.4076H15.3722V42.5663H14.2994V42.6065H15.3821V42.6849H14.8556V42.7652H14.1355V42.8436H14.8879V43.0023H15.2977V43.0425H15.546V43.1208H15.5882V43.2796H15.4641V43.3197H15.4541V43.4H15.5361V43.5587H15.6602V43.6773H15.69V43.836H14.8656V43.9545H15.2381V44.0731H14.8879V44.1916ZM11.6298 44.0731H11.9303V44.1916H12.3103V44.0731H12.6604V43.9545H12.2904V43.836H13.1148V43.6773H13.0826V43.5587H12.9609V43.4H12.8764V43.3197H12.8889V43.2796H13.0105V43.1208H12.9708V43.0425H12.7225V43.0023H12.3103V42.8436H11.5578V42.7652H12.2805V42.6849H12.8044V42.6065H9.43706V42.6849H10.3633V42.7652H11.158V42.8436H11.2697V43.0023H11.4237V43.0425H11.374V43.1208H11.4659V43.2796H11.4361V43.3197H11.384V43.4H11.2697V43.6773H10.8376V43.836H11.2697V43.9545H11.6298V44.0731ZM13.7233 44.2318H14.2472V44.1916H12.7647V44.2318H11.7018V44.3905H10.8376V44.5492H10.5074V44.5894H10.8898V44.7481H11.3418V44.7557C11.3418 44.7825 11.3418 44.8083 11.3418 44.8322C11.3418 44.8551 11.3449 44.88 11.3517 44.9068H11.4361L11.4659 45.0253H11.456C11.469 45.0789 11.5069 45.1319 11.5702 45.184H11.4957C11.5237 45.216 11.5584 45.2428 11.6 45.2643H11.5479C11.6652 45.3332 11.8297 45.3676 12.0421 45.3676C12.2488 45.3676 12.4102 45.3332 12.5263 45.2643H12.4145C12.4555 45.2428 12.4897 45.216 12.5164 45.184H12.3624C12.4034 45.142 12.4419 45.0894 12.4766 45.0253H12.6927C12.7057 45.0052 12.7138 44.9852 12.7175 44.966C12.7206 44.9469 12.7256 44.9273 12.7324 44.9068H12.3202C12.3283 44.88 12.3338 44.8551 12.3376 44.8322C12.3407 44.8083 12.3425 44.7825 12.3425 44.7557V44.7481H12.9087V44.5894H12.8168V44.5492H12.8889V44.3905H13.7233V44.2318Z" fill="#FFBD59"/>
<path d="M23.0974 43.7174H22.5933C22.5865 43.738 22.579 43.7576 22.5709 43.7767C22.5641 43.7949 22.5542 43.8145 22.5411 43.836H22.8292L22.7994 43.9144H22.5511C22.5312 43.9631 22.5039 44.0157 22.4691 44.0731H22.3152C22.2866 44.1266 22.2487 44.1797 22.2009 44.2318H22.2208C22.1941 44.2586 22.1699 44.2853 22.1488 44.3121C22.1289 44.3379 22.1047 44.3637 22.0768 44.3905H23.1893L23.0577 44.509H22.1388C22.1121 44.5358 22.078 44.5626 22.037 44.5894C21.9954 44.6161 21.9576 44.6424 21.9228 44.6677H22.0569C22.0283 44.6897 21.9954 44.7098 21.9576 44.7289C21.9209 44.7471 21.8855 44.7667 21.8508 44.7882H22.191L22.1488 44.8112L22.2431 44.9469H21.9948L22.109 45.1056H22.1388L22.1711 45.1439H22.1612L22.263 45.3026H22.3673L22.4269 45.3829H21.6347L21.7167 45.5014H22.4393L22.4989 45.5817H22.2729L22.3549 45.7003H23.3755L23.4898 45.859H22.8093L22.8913 45.9775H22.5734L22.7373 46.2146H22.8093L22.8714 46.295H22.8391L22.8714 46.3351H22.3872L22.4989 46.4938L22.5213 46.5321H22.2009L22.2531 46.62C22.2729 46.642 22.2829 46.6654 22.2829 46.6908H22.4989V46.708C22.4989 46.7653 22.4679 46.8127 22.407 46.8495H22.6852C22.6504 46.8715 22.6057 46.882 22.5511 46.882H20.4403C20.3987 46.882 20.362 46.8781 20.331 46.8705C20.2993 46.8629 20.267 46.8562 20.2341 46.8495H19.956C19.8995 46.8294 19.8523 46.8031 19.8145 46.7711C19.7778 46.7395 19.7487 46.7128 19.7275 46.6908H19.5214L19.5016 46.6678L19.4295 46.5321H19.7598L19.7275 46.4938H18.7491V46.5321H18.2251V46.6908H19.0595C19.0446 46.7663 18.9999 46.8189 18.9254 46.8495H18.8534C18.805 46.8715 18.7528 46.882 18.697 46.882H16.678C16.6166 46.882 16.5688 46.8715 16.534 46.8495H16.616C16.5415 46.8189 16.4968 46.7663 16.4819 46.6908H15.6599C15.6599 46.686 15.6586 46.6822 15.6549 46.6793C15.6499 46.6769 15.6475 46.6731 15.6475 46.6678V46.5321H16.1739V46.4938H17.2045V46.3351H16.1019V46.295H16.7501V46.2146H16.534V46.0961H16.8941V45.9775H16.308V45.859H17.1002V45.7003H16.6482V45.5817H16.6383V45.5416H16.5762V45.5014H16.2981V45.3829H16.6482V45.3026H16.5539V45.1439H16.5663V45.1056H16.534V44.9469H16.7823V44.7882H16.4322V44.6677H16.2981V44.509H17.2045V44.3905H16.092V44.2318H16.0696V44.0731H16.2261V43.9144H16.462V43.836H16.1739V43.7174H16.678V43.6371H17.4205V43.5587H16.3999V43.5186H16.4521V43.4784H16.5439V43.4383H16.5539V43.3599H16.534V43.2413H16.5762V43.0826H16.5241V43.0023H16.5762V42.8837H16.534V42.8436H16.5663V42.7652H16.5539V42.725H16.5141V42.6849H16.606V42.5663H16.688V42.4478H16.2037V42.2891H16.318V42.1304H16.2559V42.0118H16.534V41.8914H16.6383V41.7728H16.4521V41.6944H16.5241V41.6543H16.5439V41.5357H16.5663C16.5663 41.4774 16.5967 41.4243 16.6582 41.377H17.2144C17.2554 41.3455 17.3144 41.3292 17.3907 41.3292H20.4403C20.7345 41.3292 21.0096 41.3455 21.2647 41.377H20.7184C20.9928 41.4076 21.2535 41.4607 21.5006 41.5357H21.4808C21.5962 41.5663 21.7099 41.606 21.821 41.6543H21.7986L21.893 41.6944H21.8086C21.8433 41.7049 21.8719 41.7183 21.8955 41.7346C21.9203 41.7499 21.9464 41.7628 21.9749 41.7728H22.1612C22.1941 41.7948 22.2282 41.8149 22.263 41.834C22.2978 41.8522 22.3282 41.8713 22.3549 41.8914H22.2531C22.2878 41.9134 22.3164 41.9334 22.34 41.9525C22.3648 41.9707 22.3903 41.9903 22.417 42.0118H22.1388C22.1668 42.0324 22.191 42.052 22.2109 42.0711C22.232 42.0893 22.2531 42.1089 22.2729 42.1304H22.3251C22.3797 42.183 22.4275 42.2355 22.4691 42.2891H22.3673C22.3872 42.3096 22.4052 42.3345 22.4219 42.3637C22.4399 42.3933 22.4592 42.421 22.4791 42.4478H22.9633L23.0254 42.5663H22.9434C22.9496 42.5883 22.9583 42.6084 22.9683 42.6275C22.9782 42.6457 22.9869 42.6648 22.9956 42.6849H22.8913L22.9112 42.725H22.9534C22.9596 42.7356 22.9633 42.7489 22.9633 42.7652L22.9956 42.8436H23.0254C23.0254 42.8603 23.0285 42.8737 23.0353 42.8837H23.0453C23.0533 42.9043 23.0589 42.9239 23.0626 42.943C23.0657 42.9621 23.0676 42.9822 23.0676 43.0023H22.9335C22.9335 43.0128 22.9335 43.0262 22.9335 43.0425C22.9335 43.0577 22.9366 43.0711 22.9434 43.0826H23.0055C23.0055 43.1084 23.0068 43.1342 23.0105 43.161C23.0136 43.1878 23.0155 43.2145 23.0155 43.2413V43.3197H23.0775V43.3599H23.0155V43.4383H22.9112C22.9112 43.4435 22.9093 43.4493 22.9062 43.4555C22.9025 43.4607 22.9012 43.4684 22.9012 43.4784H23.0055C23.0055 43.4837 23.0037 43.4894 23.0006 43.4956C22.9968 43.5009 22.9956 43.5085 22.9956 43.5186H23.4798C23.4711 43.5291 23.4674 43.5425 23.4674 43.5587H23.6015L23.5916 43.6371H23.1173C23.1036 43.6691 23.0974 43.6959 23.0974 43.7174ZM18.9776 43.5587H19.9957V43.6371H19.2557V43.6448H20.0057C20.0535 43.6448 20.0914 43.6424 20.1199 43.6371H20.5942C20.67 43.6218 20.7389 43.596 20.8003 43.5587H20.6563L20.7085 43.5186H20.2242C20.2441 43.5023 20.2571 43.4889 20.2639 43.4784H20.1621L20.1919 43.4383H20.2962L20.326 43.3599H20.3782C20.3844 43.3498 20.3881 43.3364 20.3881 43.3197H20.326L20.336 43.2413C20.336 43.1878 20.326 43.1352 20.3062 43.0826H20.2441C20.2372 43.0711 20.2323 43.0577 20.2292 43.0425C20.2255 43.0262 20.2168 43.0128 20.2019 43.0023H20.3459C20.3192 42.9602 20.2819 42.921 20.2341 42.8837H20.2118C20.1919 42.8675 20.1677 42.8541 20.1398 42.8436H20.11C20.0404 42.8168 19.9684 42.8034 19.8939 42.8034H19.1415V42.8436H19.1092V42.8837H19.1514V43.0023H19.0993V43.0826H19.1514V43.2413H19.1092V43.3599H19.1316V43.4383H19.1216V43.4784H19.0273V43.5186H18.9776V43.5587ZM19.7896 45.3829L19.7499 45.3026H19.6357L19.5537 45.1534H19.1316V45.3026H19.2234V45.3829H19.7896ZM18.8733 45.3829V45.5014H19.0695L19.0074 45.3829H18.8733ZM19.812 45.5416L19.7896 45.5014H19.1514V45.5416H19.2135V45.5817H19.2234V45.7003H19.6779V45.859H18.8832V45.9775H19.4718V46.0961H19.1092V46.2146H19.3277V46.295H18.6771V46.3351H20.1298L20.1 46.295H20.1298L20.0777 46.2146H19.9957L19.9337 46.0961L19.8616 45.9775H20.1919L20.1199 45.859H20.7904L20.696 45.7003H19.6779L19.6158 45.5817H19.8418L19.812 45.5416Z" fill="#FFBD59"/>
<path d="M30.5449 44.3504H31.8958V44.5091H31.4935V44.6678H30.9174V44.7806C30.9174 44.8011 30.9149 44.8222 30.91 44.8437C30.9062 44.8642 30.905 44.8853 30.905 44.9068H30.9373C30.9373 44.9273 30.9354 44.9469 30.9323 44.9661C30.9286 44.9852 30.9274 45.0053 30.9274 45.0253H30.833C30.833 45.0359 30.833 45.0492 30.833 45.0655C30.833 45.0808 30.8293 45.0942 30.8231 45.1056H29.8769C29.8682 45.1162 29.8645 45.1295 29.8645 45.1458C29.8645 45.1611 29.8608 45.174 29.8546 45.184H29.8645L29.8347 45.3026H30.5772C30.5704 45.3246 30.5629 45.3447 30.5549 45.3638C30.548 45.3819 30.5412 45.4015 30.535 45.4231H30.6492C30.6424 45.4489 30.6318 45.4747 30.6169 45.5015C30.6033 45.5282 30.5902 45.555 30.5772 45.5818H30.7113L30.6691 45.6602H30.5151C30.5015 45.6869 30.4859 45.7137 30.4679 45.7405C30.4512 45.7663 30.4319 45.7921 30.4108 45.8189H30.8231L30.761 45.8992H30.8454C30.8305 45.9097 30.8181 45.9231 30.8082 45.9393C30.7982 45.9546 30.7864 45.9675 30.7734 45.9776H30.1848C30.178 45.9828 30.1712 45.9881 30.165 45.9929C30.1581 45.9981 30.1507 46.0062 30.1426 46.0177H30.8131C30.7864 46.0498 30.7591 46.076 30.7312 46.0961H30.5673C30.5455 46.1181 30.5226 46.1382 30.4977 46.1573C30.4741 46.1755 30.4487 46.1946 30.4208 46.2147H30.7833L30.6169 46.3351H30.5052L30.4431 46.3734H30.1327C30.0712 46.4116 29.9992 46.4518 29.9166 46.4938H29.8546C29.813 46.5144 29.7701 46.534 29.7254 46.5531C29.6807 46.5713 29.6342 46.5909 29.5864 46.6124H29.3927L29.2784 46.6525H29.0102C28.8792 46.6999 28.7526 46.7395 28.6303 46.7711H28.372C28.1864 46.8184 27.9902 46.8581 27.7835 46.8896H27.5873C27.5327 46.8944 27.4762 46.9011 27.4184 46.9088C27.3601 46.9174 27.3042 46.9245 27.2496 46.9298H27.5277C27.4166 46.9398 27.3005 46.9475 27.18 46.9527C27.0608 46.9575 26.9392 46.9604 26.815 46.9604C26.684 46.9604 26.558 46.9575 26.4375 46.9527C26.3183 46.9475 26.2004 46.9398 26.0849 46.9298H25.8167C25.7552 46.9245 25.6963 46.9174 25.6404 46.9088C25.5857 46.9011 25.5311 46.8944 25.4765 46.8896H25.6727C25.4653 46.8581 25.2691 46.8184 25.0841 46.7711H25.3424C25.2182 46.7395 25.0947 46.6999 24.9724 46.6525H25.2505C25.2288 46.6411 25.2089 46.6329 25.1909 46.6277C25.1741 46.6229 25.1592 46.6176 25.1462 46.6124H25.3523C25.3039 46.5909 25.2592 46.5713 25.2182 46.5531C25.1766 46.534 25.135 46.5144 25.094 46.4938H25.1661L24.9599 46.3734H25.2704L25.2083 46.3351H25.3225L25.1661 46.2147H24.8159C24.7892 46.1946 24.765 46.1755 24.7439 46.1573C24.724 46.1382 24.7029 46.1181 24.6818 46.0961H24.8482C24.8414 46.0861 24.8308 46.0732 24.8159 46.0579C24.8023 46.0416 24.7892 46.0282 24.7762 46.0177H24.1057L24.0759 45.9776H24.662L24.5999 45.8992H24.5279L24.4658 45.8189H24.0535L23.9617 45.6602H24.1156C24.1088 45.6501 24.102 45.6372 24.0958 45.6219C24.0889 45.6057 24.0821 45.5923 24.0759 45.5818H23.9418C23.9269 45.555 23.9145 45.5282 23.9045 45.5015C23.8946 45.4747 23.8828 45.4489 23.8698 45.4231H23.7555C23.7487 45.4015 23.7419 45.3819 23.7357 45.3638C23.7288 45.3447 23.7214 45.3246 23.7133 45.3026H23.6314C23.6245 45.2825 23.6177 45.2634 23.6115 45.2452C23.6047 45.2261 23.5979 45.206 23.5916 45.184H23.013C23.0068 45.174 23.0031 45.1611 23.0031 45.1458C23.0031 45.1295 23 45.1162 22.9932 45.1056H23.9418C23.9418 45.0942 23.9418 45.0808 23.9418 45.0655C23.9418 45.0492 23.9381 45.0359 23.9319 45.0253H23.8176C23.8108 45.0053 23.8058 44.9852 23.8027 44.9661C23.799 44.9469 23.7978 44.9273 23.7978 44.9068H24.21C24.21 44.8853 24.21 44.8657 24.21 44.8475C24.21 44.8284 24.2056 44.8088 24.1976 44.7882H24.5899V44.6678H23.4253V44.5091H24.2919C24.2851 44.4837 24.282 44.4574 24.282 44.4307C24.282 44.4039 24.282 44.3771 24.282 44.3504H24.4161V44.272H23.5594V44.1917H23.6537V44.0731H23.9319V43.9947H23.7878V43.9546H23.7357V43.7958H23.7456V43.6371H23.7754V43.597H23.8077V43.5587H23.6115V43.5186H23.8276V43.4784H23.7754C23.7835 43.4569 23.7878 43.4373 23.7878 43.4192C23.7878 43.4 23.7878 43.3804 23.7878 43.3599H23.8698V43.3197H23.7034C23.7034 43.293 23.7046 43.2672 23.7084 43.2413C23.7115 43.2146 23.7133 43.1878 23.7133 43.161H23.7878C23.794 43.151 23.7978 43.1381 23.7978 43.1228C23.7978 43.1065 23.8009 43.0931 23.8077 43.0826H23.8598L23.8896 42.9622H23.5395L23.5693 42.8436H23.8797C23.8927 42.8168 23.9027 42.7896 23.9095 42.7614C23.9157 42.7322 23.9269 42.7069 23.9418 42.6849H24.066L24.0858 42.6448H24.0138C24.02 42.6247 24.0287 42.6056 24.0386 42.5874C24.0486 42.5683 24.0573 42.5482 24.066 42.5262H24.0535C24.0684 42.5061 24.0809 42.487 24.0908 42.4688C24.1007 42.4497 24.1119 42.4296 24.1256 42.4077H24.0958L24.1876 42.2891H24.2721L24.3019 42.249H24.21L24.3217 42.1304H24.9401C24.9612 42.1141 24.9755 42.1008 24.9823 42.0902H24.4037L24.4981 42.0118H24.4459L24.5999 41.8914C24.6408 41.8661 24.6824 41.8388 24.724 41.8092C24.765 41.78 24.8097 41.7547 24.8581 41.7327H24.8681C24.9227 41.7073 24.9773 41.6801 25.032 41.6505C25.0878 41.6213 25.1468 41.596 25.2083 41.574C25.243 41.5587 25.2784 41.5448 25.3151 41.5319C25.3529 41.518 25.3896 41.5061 25.4243 41.4956H25.4467C25.5907 41.4473 25.7447 41.4076 25.9086 41.377H25.8986C26.1054 41.334 26.3239 41.302 26.5542 41.2814C26.7839 41.2599 27.0223 41.2489 27.2694 41.2489C27.5308 41.2489 27.7766 41.2599 28.007 41.2814C28.2367 41.302 28.4577 41.334 28.67 41.377C28.842 41.4076 29.0034 41.4473 29.1543 41.4956H29.1344C29.1754 41.5061 29.217 41.518 29.2586 41.5319C29.2995 41.5448 29.3405 41.5587 29.3802 41.574C29.4498 41.596 29.515 41.6213 29.5764 41.6505C29.6391 41.6801 29.7012 41.7073 29.7627 41.7327H29.7527C29.8074 41.7547 29.857 41.78 29.9017 41.8092C29.9464 41.8388 29.9924 41.8661 30.0408 41.8914H30.0309C30.0656 41.9134 30.0961 41.9335 30.1228 41.9526C30.1507 41.9707 30.178 41.9903 30.2047 42.0118H30.2569L30.3487 42.0902H30.9274L30.9795 42.1304H30.3487C30.3767 42.151 30.399 42.1706 30.4158 42.1897C30.4338 42.2078 30.453 42.2274 30.4729 42.249H30.5673L30.5971 42.2891H30.5151C30.5282 42.3097 30.5431 42.3293 30.5598 42.3484C30.5778 42.3665 30.5902 42.3861 30.5971 42.4077H30.6269C30.6418 42.4296 30.6554 42.4497 30.6691 42.4688C30.6821 42.487 30.6921 42.5061 30.6989 42.5262H30.7212C30.7343 42.5482 30.7442 42.5683 30.751 42.5874C30.7572 42.6056 30.7647 42.6247 30.7734 42.6448H30.8553C30.8553 42.6515 30.8566 42.6572 30.8603 42.662C30.8634 42.6672 30.8653 42.6749 30.8653 42.6849H30.7411C30.7541 42.7117 30.7622 42.7385 30.7659 42.7652C30.7709 42.791 30.7765 42.8168 30.7833 42.8436H30.8032C30.8032 42.8656 30.8044 42.8857 30.8082 42.9048C30.8113 42.923 30.8131 42.9421 30.8131 42.9622H30.9795C30.9857 42.9736 30.9894 42.9923 30.9894 43.0176C30.9894 43.0396 30.982 43.0611 30.9671 43.0826H30.7933C30.7796 43.1199 30.7523 43.1457 30.7113 43.161H30.7833C30.7486 43.183 30.7039 43.1935 30.6492 43.1935H28.372C28.2826 43.1935 28.2137 43.183 28.1659 43.161H28.0939C28.0523 43.141 28.025 43.1223 28.0119 43.1056L27.9797 43.0826H28.1659C28.1522 43.0664 28.1349 43.0477 28.1138 43.0272C28.0939 43.0057 28.0666 42.9842 28.0318 42.9622H27.8679C27.7984 42.9101 27.7189 42.8704 27.6295 42.8436H27.6096C27.5202 42.8121 27.4035 42.7958 27.2595 42.7958C27.1155 42.7958 26.9913 42.8121 26.887 42.8436H26.5791C26.4897 42.8656 26.4139 42.9048 26.3531 42.9622H26.7032C26.6685 42.9889 26.6337 43.0291 26.5989 43.0826H26.5369C26.53 43.0931 26.5232 43.1051 26.517 43.119C26.5102 43.1319 26.5033 43.1457 26.4971 43.161H26.4251C26.4183 43.183 26.4108 43.2084 26.4028 43.2375C26.3959 43.2657 26.3891 43.293 26.3829 43.3197H26.5592C26.5505 43.3302 26.5468 43.3436 26.5468 43.3599H26.4648V43.4784H26.5071V43.5186H26.291V43.5587H26.4872V43.597H26.4549V43.6371H26.4251V43.7958H26.4152V43.9546H26.4648V43.9947H26.6089V44.0731H26.3307V44.1917H26.2389V44.272H27.0931V44.3504H26.959C26.959 44.3771 26.9603 44.4039 26.964 44.4307C26.969 44.4574 26.9714 44.4837 26.9714 44.5091H26.1048V44.6678H27.2694V44.7882H26.887C26.887 44.8088 26.8882 44.8284 26.892 44.8475C26.8969 44.8657 26.8994 44.8853 26.8994 44.9068H26.4872C26.4934 44.9273 26.5002 44.9469 26.5071 44.9661C26.5133 44.9852 26.5201 45.0053 26.5269 45.0253H26.6412C26.6474 45.0421 26.6542 45.0569 26.661 45.0693C26.6672 45.0822 26.6741 45.0942 26.6809 45.1056H25.7347C25.741 45.1315 25.7621 45.1573 25.7968 45.184H26.373C26.4139 45.2314 26.4655 45.271 26.5269 45.3026H26.6188C26.743 45.3767 26.918 45.4135 27.1453 45.4135C27.2626 45.4135 27.3725 45.4049 27.4755 45.3867C27.578 45.3676 27.6643 45.3399 27.7338 45.3026H27.0012C27.0559 45.2773 27.1105 45.2376 27.1651 45.184H27.1552C27.1831 45.1525 27.2005 45.1262 27.2073 45.1056H28.1659L28.1957 45.0253H28.2901C28.2963 45.0053 28.3012 44.9852 28.305 44.9661C28.3081 44.9469 28.3099 44.9273 28.3099 44.9068H28.2777L28.2901 44.8513V44.8437H27.8058C27.7363 44.8437 27.6705 44.8255 27.6096 44.7882C27.5612 44.7514 27.5339 44.7113 27.5277 44.6678H28.1138C28.1069 44.6577 28.1038 44.6448 28.1038 44.6295V44.5091H28.5061V44.3504H27.1552V44.272H27.7015V44.1917H27.3216V44.0731H27.4234V43.9947H27.4954V43.9546H27.4135V43.7958H27.4433V43.748C27.4433 43.7012 27.4569 43.6639 27.4855 43.6371H27.4433C27.4513 43.6271 27.4656 43.6137 27.4855 43.597H27.5476C27.5736 43.5769 27.5947 43.564 27.6096 43.5587H27.4234C27.4582 43.5425 27.4991 43.5339 27.5476 43.5339H30.381C30.4357 43.5339 30.4766 43.5425 30.5052 43.5587H30.6989C30.72 43.564 30.7448 43.5769 30.7734 43.597H30.7113C30.7312 43.6137 30.7442 43.6271 30.751 43.6371H30.7933C30.8193 43.6639 30.833 43.7012 30.833 43.748V43.7958H30.8032V43.9546H30.8851V43.9947H30.8131V44.0731H30.7113V44.1917H31.0913V44.272H30.5449V44.3504Z" fill="#FFBD59"/>
<path d="M38.2396 45.5014H39.0542V45.62H37.4872V45.7787H38.4979V45.9374H37.6114V46.0961H37.7256V46.2146H37.6536V46.295H37.4375V46.3734H37.4276V46.4537H37.6436V46.6124H37.9416V46.6678C37.9416 46.6783 37.9379 46.686 37.9317 46.6908H36.0965C36.0897 46.7022 36.0866 46.7156 36.0866 46.7309H36.7993C36.7776 46.7845 36.7397 46.8241 36.6851 46.8495H36.4889C36.4541 46.8715 36.4057 46.882 36.3449 46.882H30.9759C30.9213 46.882 30.8704 46.8715 30.822 46.8495H31.0182C30.9704 46.8241 30.9325 46.7845 30.9039 46.7309H30.1838C30.1776 46.7209 30.1738 46.7075 30.1738 46.6908H32.0164V46.6124H31.7184V46.4537H31.5024V46.3734H31.5123V46.295H31.7284V46.2146H31.8004V46.0961H31.6887V45.9374H32.5727V45.7787H31.5645V45.62H33.129V45.5014H32.3169V45.423H32.5528V45.3427H32.6571V45.2643H31.5123V45.184H31.2441V45.0655H32.2027V45.0253H31.4403V44.9469H31.6663V44.8666H31.8327V44.7481H31.8103V44.5894H31.7085V44.4306H31.5546V44.3503H31.6762V44.1916H31.5645V44.1132H31.7284V43.9947H31.7706V43.8761H31.9544V43.836H31.7805V43.6773H31.6266V43.5587H31.6663V43.4383H31.6887V43.2796H31.8426V43.1208H31.6166V42.9621H31.6464V42.8034H31.9345V42.6849H31.7805V42.5663H31.6986V42.5262H32.1307V42.4076H32.8931V42.3273H32.5851V42.2489H31.5844V42.2088H31.6986V42.0902H31.7085V41.9717H31.7383V41.813H31.7284V41.6141H31.7085V41.5434C31.7085 41.5218 31.7116 41.5061 31.7184 41.4956H31.6166C31.6427 41.3847 31.7315 41.3292 31.8823 41.3292H37.1693C37.3264 41.3292 37.4158 41.3847 37.4375 41.4956H37.5393C37.5455 41.5061 37.5493 41.5218 37.5493 41.5434V41.6141H37.5716V41.813H37.5816V41.9717H37.5493V42.0902H37.5393V42.2088H37.4276V42.2489H38.4259V42.3273H38.7363V42.4076H37.9714V42.5262H37.5393V42.5663H37.6213V42.6849H37.7777C37.7628 42.7384 37.7386 42.7781 37.7057 42.8034H37.4152C37.3667 42.8522 37.2985 42.8761 37.2091 42.8761H34.1198V42.9621H34.0875V43.1208H34.316V43.2796H34.1595V43.3752H37.0253C37.0998 43.3752 37.165 43.3962 37.2215 43.4383H37.1991C37.2339 43.465 37.2575 43.5052 37.2711 43.5587H37.2413V43.6773H37.3953V43.836H37.5716V43.8761H37.3854V43.9947H37.3432V44.1132H37.1793V44.1916H37.2935V44.3503H37.1693V44.4306H37.3233V44.5894H37.4276V44.6219C37.4276 44.6792 37.4102 44.7213 37.3754 44.7481H37.3953C37.3407 44.8069 37.2649 44.836 37.1693 44.836H34.3036V44.8666H34.1397V44.9469H33.9137V45.0253H34.6761V45.0655H33.7175V45.184H33.9857V45.2643H35.128V45.3351H38.3017C38.3365 45.3351 38.3638 45.3379 38.3837 45.3427H38.2719C38.3396 45.3595 38.3911 45.3862 38.4259 45.423H38.19C38.216 45.4536 38.2328 45.4799 38.2396 45.5014Z" fill="#FFBD59"/>
<path d="M45.1 43.3197H44.9882V43.4383H45.2241V43.4784H45.1323L45.1 43.6371H45.2142C45.2074 43.6476 45.2043 43.661 45.2043 43.6773H45.0602C45.0516 43.7041 45.0441 43.7308 45.0379 43.7576C45.0311 43.7834 45.0211 43.8092 45.0081 43.836C45.0081 43.8565 45.0013 43.8828 44.9882 43.9144H44.8839L44.8219 44.0348H44.8119C44.8051 44.0607 44.7908 44.0865 44.7697 44.1132C44.7498 44.14 44.7331 44.1663 44.72 44.1916H44.7399L44.7101 44.2318H44.802C44.7803 44.2586 44.7598 44.2853 44.7399 44.3121C44.72 44.3379 44.6958 44.3637 44.6679 44.3905H44.7399C44.7113 44.4173 44.6815 44.444 44.6505 44.4708C44.6207 44.4966 44.5884 44.5224 44.5537 44.5492H44.5338C44.4922 44.576 44.4525 44.6027 44.4146 44.6295C44.3761 44.6553 44.3333 44.6811 44.2855 44.7079H44.2259C44.1694 44.7347 44.1122 44.7614 44.0545 44.7882C43.9961 44.814 43.9359 44.8398 43.8732 44.8666H43.9055C43.8918 44.8719 43.8745 44.8776 43.8534 44.8838C43.8335 44.8891 43.8161 44.8967 43.8012 44.9068H43.7913C43.6603 44.9541 43.5162 44.9938 43.3592 45.0253C43.2828 45.0421 43.2034 45.0569 43.1208 45.0693C43.0395 45.0822 42.9575 45.0942 42.8749 45.1056H42.865C42.59 45.1377 42.2976 45.1534 41.9884 45.1534H41.2682V45.2242H41.3402V45.3829H41.4644V45.423H41.2161V45.5014H41.308V45.62H41.0522V45.6601H41.37V45.8188H41.2782V46.0177H41.3204V46.1363H41.1962V46.295H41.1441V46.3734H41.4843V46.4938H41.1962V46.6525H41.3924V46.6678C41.3924 46.6946 41.388 46.7156 41.38 46.7309H41.3204C41.3204 46.7362 41.3129 46.7496 41.298 46.7711H41.3303C41.3235 46.7816 41.3092 46.795 41.2881 46.8112H41.298C41.2713 46.8318 41.2508 46.8447 41.2359 46.8495H41.2459C41.2124 46.8715 41.1645 46.882 41.1018 46.882H38.9811C38.9178 46.882 38.87 46.8715 38.8371 46.8495H38.8147C38.8011 46.8447 38.7806 46.8318 38.7526 46.8112C38.7458 46.7998 38.739 46.7916 38.7328 46.7864C38.7259 46.7816 38.7228 46.7763 38.7228 46.7711H38.693C38.6781 46.7496 38.6707 46.7362 38.6707 46.7309H38.7228C38.716 46.7156 38.7129 46.6946 38.7129 46.6678V46.6525H38.5167V46.4938H38.8048V46.3734H38.4646V46.295H38.5167V46.1363H38.6409V46.0177H38.5987V45.8188H38.693V45.6601H38.3727V45.62H38.6309V45.5014H38.5366V45.423H38.7849V45.3829H38.6607V45.2242H38.5887V45.1056H38.5987V44.8666H38.5788V44.7079H38.6409V44.5492H38.6707V44.3905H38.5987V44.2318H38.5068V44.1916H38.4869V44.0348H38.4968V43.9144H38.5987V43.6773H38.5689V43.6371H38.5366V43.4784H38.6508V43.4383H38.6086V43.3197H38.6508V43.2413H38.6409V43.161H38.3528V43.0023H37.208V42.8838H37.7345V42.725H38.6707V42.6447H38.2808V42.486H38.0424V42.3675H38.1964V42.3273H37.9803V42.1686H38.775V42.1304H38.6707V42.0118H38.4348V41.8914H38.1045V41.7327H38.847V41.6141H38.4869V41.574H38.4149V41.5357H38.5987C38.5987 41.5142 38.6049 41.4874 38.6185 41.4554H38.5068C38.513 41.4401 38.5229 41.4262 38.5366 41.4133C38.5515 41.3995 38.5651 41.3875 38.5788 41.377H39.2071C39.2617 41.3455 39.3201 41.3292 39.3834 41.3292H42.5049C42.806 41.3292 43.0842 41.3455 43.3393 41.377H42.721C42.8035 41.3875 42.8836 41.3995 42.9618 41.4133C43.0413 41.4262 43.1158 41.4401 43.1853 41.4554H43.307C43.3617 41.4659 43.4144 41.4779 43.466 41.4917C43.5187 41.5046 43.569 41.5195 43.6174 41.5357H43.4312C43.4523 41.541 43.4734 41.5462 43.4933 41.551C43.5131 41.5563 43.5336 41.5639 43.5554 41.574H43.6174L43.7292 41.6141H44.1017L44.3699 41.7327H43.6174C43.6721 41.7547 43.7199 41.78 43.7615 41.8091C43.8024 41.8388 43.844 41.866 43.8856 41.8914H44.2134L44.3699 42.0118H44.6058C44.6269 42.0324 44.6493 42.052 44.6729 42.0711C44.6977 42.0893 44.7163 42.1089 44.73 42.1304H44.8318C44.8529 42.1457 44.8672 42.1586 44.874 42.1686H44.0793C44.1004 42.1906 44.1216 42.216 44.1414 42.2451C44.1625 42.2747 44.1836 42.302 44.2035 42.3273H44.4196L44.4419 42.3675H44.2979L44.3575 42.486H44.6058L44.6679 42.6447H45.0602L45.09 42.725H44.1538C44.1669 42.747 44.1749 42.7724 44.1787 42.8015C44.1818 42.8297 44.1867 42.857 44.1936 42.8838H45.5122C45.5184 42.9043 45.5221 42.9239 45.5221 42.943C45.5221 42.9622 45.5252 42.9822 45.5321 43.0023H45.4824C45.4886 43.0291 45.4936 43.0558 45.4973 43.0826C45.5004 43.1084 45.5023 43.1342 45.5023 43.161H45.1V43.3197ZM42.5149 43.4383H42.2765L42.3087 43.3197H42.4205V43.2413C42.4205 43.2298 42.4205 43.2165 42.4205 43.2012C42.4205 43.1849 42.4168 43.1715 42.4106 43.161H42.8128C42.806 43.1342 42.7992 43.107 42.793 43.0788C42.7862 43.0496 42.7756 43.0243 42.7607 43.0023H42.8029C42.7893 42.9602 42.7545 42.921 42.6986 42.8838H41.38C41.2986 42.8302 41.1993 42.8034 41.082 42.8034H40.3618V42.8838H39.8354V43.0023H40.9802V43.161H41.2682V43.2413H41.2782V43.3197H41.2359V43.4383H41.2782V43.4784H41.1639V43.6371H41.1962V43.6773H41.226V43.6849H41.9487C41.9896 43.6849 42.0207 43.6825 42.0405 43.6773H42.1846C42.2125 43.6725 42.2367 43.6658 42.2566 43.6582C42.2777 43.6496 42.2988 43.6424 42.3187 43.6371H42.2144C42.2969 43.6003 42.359 43.5473 42.4006 43.4784H42.495C42.508 43.4569 42.5149 43.4435 42.5149 43.4383Z" fill="#FFBD59"/>
<path d="M53.198 46.4537L53.27 46.6124H53.0962L53.116 46.6525C53.116 46.6578 53.1173 46.664 53.121 46.6716C53.1241 46.6793 53.126 46.686 53.126 46.6908H53.0639V46.708C53.0639 46.772 53.0328 46.8189 52.972 46.8495H52.9819C52.9472 46.8715 52.9025 46.882 52.8478 46.882H50.9431C50.8947 46.882 50.855 46.8781 50.8239 46.8705C50.7923 46.8629 50.76 46.8562 50.7271 46.8495C50.6706 46.8294 50.6284 46.8045 50.6004 46.7749C50.5737 46.7457 50.5539 46.7175 50.5408 46.6908H50.593V46.6831L50.5706 46.6525L50.5508 46.6124H50.7271L50.6526 46.4537H50.4589L50.4266 46.3734H50.8488L50.7767 46.2146H50.6526L50.6228 46.1592H48.4077L48.3878 46.2146H48.2636L48.1916 46.3734H48.0774L48.0376 46.4537H47.9756L47.9035 46.6124H47.9135L47.8936 46.6525L47.8812 46.6831L47.8713 46.6908H47.8216C47.8067 46.7175 47.785 46.7457 47.757 46.7749C47.7303 46.8045 47.69 46.8294 47.6353 46.8495H47.9433C47.9166 46.8562 47.8862 46.8629 47.8514 46.8705C47.8166 46.8781 47.775 46.882 47.7272 46.882H45.8225C45.766 46.882 45.7244 46.8715 45.6984 46.8495H45.3879C45.3197 46.8127 45.2861 46.7653 45.2861 46.708V46.6908H45.3482C45.3482 46.6755 45.3513 46.663 45.3581 46.6525L45.3681 46.6124H45.3581L45.4302 46.4537H45.4922L45.532 46.3734H45.6462L45.7182 46.2146H45.8325L45.9045 46.0579H45.5022L45.5444 45.9775H45.5121L45.5643 45.859H45.6661L45.6884 45.8188H45.46L45.532 45.6601H45.8821L45.9144 45.5817H45.5941L45.6164 45.5416H45.6661L45.7381 45.3829H45.7083L45.7604 45.2643H45.8002L45.8722 45.1056H46.0063L46.0584 44.9852L46.0783 44.9469H46.5948L46.6147 44.9068H46.5849L46.6346 44.7882H46.0584L46.1305 44.6295H46.3167L46.3366 44.5894H46.2223L46.2447 44.5492H46.5725L46.647 44.3905H46.2447L46.2844 44.3121H46.4409L46.5129 44.1534H46.4185L46.4707 44.0348H46.5849L46.6569 43.8761H46.6246L46.647 43.836H46.4086L46.4508 43.7557H46.6768L46.7289 43.6371H46.6246L46.6346 43.597H46.8208L46.8928 43.4383H46.6669L46.719 43.3197H46.6048L46.6346 43.2413H45.9243L45.9566 43.161H45.8225L45.8945 43.0023H45.7604L45.8225 42.8837H46.2223L46.2944 42.725H47.3249L47.3771 42.6065H46.8829L46.9251 42.5262H47.3051L47.3771 42.3675H47.0369L47.089 42.2489H47.3051L47.3771 42.0902H47.3473L47.4193 41.9315H47.1312L47.1412 41.8914H48.1295L48.2015 41.7327H48.1717L48.1916 41.6944H47.8315L47.8713 41.5912L47.9035 41.5357H48.0054L48.0674 41.4554H48.0376C48.0705 41.4186 48.1177 41.3885 48.1792 41.3655C48.2419 41.3416 48.3183 41.3292 48.4077 41.3292H50.6426C50.732 41.3292 50.8072 41.3416 50.8686 41.3655C50.9313 41.3885 50.9804 41.4186 51.0151 41.4554H51.0549L51.117 41.5357H51.0151C51.0282 41.5563 51.035 41.5749 51.035 41.5912L51.0872 41.6944H51.4472L51.4572 41.7327H51.4895L51.5615 41.8914H50.5806L50.6029 41.9315H50.891L50.963 42.0902H50.9928L51.0648 42.2489H50.8488L50.9009 42.3675H51.2411L51.3131 42.5262H50.9332L50.9729 42.6065H51.4671L51.5193 42.725H50.4887L50.5607 42.8837H50.1584L50.2105 43.0023H50.3347L50.4067 43.161H50.0044L50.0466 43.2413H51.6832L51.7154 43.3197H51.6335L51.6832 43.4383H51.477L51.5491 43.597H51.3032L51.3131 43.6371H51.6832L51.7353 43.7557H51.7452L51.7874 43.836H51.4472L51.4671 43.8761H51.7974L51.8694 44.0348H51.9836L52.0333 44.1534H52.0035L52.0755 44.3121H52.2394L52.2816 44.3905H51.9836L52.0556 44.5492H52.2618L52.2717 44.5894H52.2195L52.2394 44.6295H52.0556L52.1177 44.7882H52.7038L52.7559 44.9068H52.7857L52.8081 44.9469H52.2816L52.3015 44.9852H52.3114L52.3636 45.1056H52.2295L52.3015 45.2643H52.2518L52.3114 45.3829H52.3437L52.4157 45.5416H52.3636L52.3859 45.5817H52.7038L52.746 45.6601H52.3859L52.4579 45.8188H52.6839L52.7038 45.859H52.602L52.6641 45.9775H52.6839L52.7237 46.0579H53.126L53.198 46.2146H53.3221L53.3942 46.3734H52.972L53.0018 46.4537H53.198ZM48.8919 43.3197H49.0161L48.9639 43.4383H49.3861L49.3339 43.3197H49.4184L49.3861 43.2413H48.9217L48.8919 43.3197ZM49.2321 43.597L49.18 43.4631L49.1278 43.597H49.2321ZM48.6138 44.5492L48.5939 44.5894H48.7057L48.6957 44.6123H49.8604L49.8505 44.5894H49.9026L49.8902 44.5492H49.6841L49.6245 44.3905H49.9225L49.8902 44.3121H49.7164L49.6543 44.1534H49.6841L49.6443 44.0348H49.5301L49.468 43.8761H49.1402L49.1179 43.836H49.4581L49.4283 43.7557H49.4184L49.3662 43.6371H49.0359L48.9937 43.7557H48.7677L48.7379 43.836H48.9639L48.954 43.8761H48.9838L48.9217 44.0348H48.81L48.7578 44.1534H48.8497L48.7901 44.3121H48.6336L48.6038 44.3905H49.0061L48.9441 44.5492H48.6138Z" fill="#FFBD59"/>
<path d="M60.1407 41.4152C60.1618 41.4372 60.173 41.464 60.173 41.4956H60.5331V41.5032C60.5331 41.53 60.5262 41.5539 60.5132 41.574L60.4809 41.6141H60.101L59.9967 41.7728H60.0786L60.029 41.8531H60.1929L60.1631 41.8914H59.8328L59.7608 42.0118H59.8228L59.7906 42.0501H59.6664L59.6167 42.1304H60.3071L60.2028 42.2891H59.5944L59.5745 42.3273H59.4404L59.3585 42.4478H59.6465L59.5447 42.6065H59.7608L59.7285 42.6447H59.6565L59.6267 42.6849H59.5646L59.4603 42.8436H59.4727L59.4206 42.9239H59.5745L59.5447 42.9621H59.4404L59.4106 43.0023H59.6366L59.5845 43.0826H59.9669L59.9147 43.161H58.9661L58.914 43.2413H59.5646L59.4826 43.3599H59.3485L59.2765 43.4784H59.0183L58.9984 43.5186H59.0605L59.0083 43.597H58.9462L58.9264 43.6371H59.1424L59.0903 43.7174H59.1946L59.1201 43.836H58.9264L58.904 43.8761H58.8544L58.7501 44.0348H58.7203L58.688 44.0731H58.9462L58.8941 44.1534H59.0605L58.9885 44.2719H58.3701L58.318 44.3503H58.6681L58.5862 44.4708H58.4421L58.4098 44.509L58.3279 44.6295H58.534L58.5042 44.6677H58.8842L58.8643 44.7079L58.8121 44.7882H57.9777L57.9256 44.8666H58.976L58.8742 45.0253H58.308L58.2559 45.1056V45.184H57.9678V45.2643H58.02V45.423H58.2857V45.5817H57.1111V45.7404H58.318V45.859H57.9057V45.9775H58.02V46.0177H58.164V46.1764H58.2459V46.2146H57.9777V46.295H58.1739V46.4537H57.4314V46.6124H57.2675V46.6908H57.9877C57.9877 46.7596 57.9461 46.8127 57.8635 46.8495H57.7393C57.7058 46.8715 57.658 46.882 57.5953 46.882H55.5764C55.5149 46.882 55.4671 46.8715 55.4323 46.8495H55.5466C55.477 46.8127 55.4355 46.7596 55.4224 46.6908H54.6898V46.6124H54.8562V46.4537H55.5987V46.295H55.4025V46.2146H55.6707V46.1764H55.5863V46.0177H55.4423V45.9775H55.3305V45.859H55.7428V45.7404H54.5359V45.5817H55.7105V45.423H55.4423V45.2643H55.3926V45.184H55.6807V45.1056L55.6285 45.0253H56.1947L56.0929 44.8666H55.04L54.9903 44.7882H55.8148L55.7626 44.7079L55.7428 44.6677H55.3603L55.3305 44.6295H55.1244L55.0524 44.509H55.0623L55.0301 44.4708H55.1741L55.1021 44.3503H54.7519L54.7023 44.2719H55.3181L55.2362 44.1534H55.0723L55.0201 44.0731H54.7619L54.7321 44.0348H54.7743L54.67 43.8761H54.7122L54.6898 43.836H54.8761L54.7941 43.7174H54.6898L54.6402 43.6371H54.4241L54.3918 43.597H54.4539L54.4018 43.5186H54.3397L54.3099 43.4784H54.5682L54.4837 43.3599H54.6178L54.5359 43.2413H53.8877L53.8356 43.161H54.7842L54.7321 43.0826H53.7834L53.7338 43.0023H53.9399L53.9175 42.9621H54.3918L54.372 42.9239H54.4241L54.372 42.8436H54.0119L53.9076 42.6849H53.9597L53.9275 42.6447H53.8455L53.8157 42.6065H53.8058L53.7015 42.4478H53.4656L53.3811 42.3273H53.5053L53.4854 42.2891H52.5989L52.4971 42.1304H52.733L52.6808 42.0501H53.3091L53.2892 42.0118H53.5475L53.4656 41.8914H53.0434L53.021 41.8531H53.5872L53.5376 41.7728H52.9292L52.8149 41.6141H53.1551L53.1253 41.574C53.1104 41.5539 53.103 41.53 53.103 41.5032V41.4956H53.3811C53.3811 41.4793 53.3842 41.4645 53.3911 41.4516C53.3991 41.4391 53.4066 41.4267 53.4134 41.4152H53.5997C53.6394 41.3579 53.704 41.3292 53.7934 41.3292H55.7303C55.8061 41.3292 55.87 41.3378 55.9216 41.3541C55.9725 41.3694 56.0159 41.3899 56.0507 41.4152H55.8644C55.8856 41.4267 55.9048 41.4411 55.9216 41.4573C55.9396 41.4726 55.952 41.4855 55.9588 41.4956H55.6807C55.6937 41.5161 55.7005 41.5261 55.7005 41.5261L55.7527 41.6141H55.4224L55.5242 41.7728H56.1426L56.1947 41.8531H55.6186L55.6484 41.8914H56.0706L56.1426 42.0118H55.8868L55.9166 42.0501H55.2883L55.3405 42.1304H55.0921L55.1964 42.2891H56.083L56.1128 42.3273H55.9787L56.0606 42.4478H56.299L56.4008 42.6065H56.4108L56.4431 42.6447H56.525L56.5449 42.6849H56.4927L56.597 42.8436H56.8652L56.967 42.6849H57.0291L57.0614 42.6447H57.1434L57.1632 42.6065H56.9472L57.0515 42.4478H56.7609L56.8329 42.3273H56.977L56.9993 42.2891H57.6077L57.7095 42.1304H57.0093L57.0614 42.0501H57.1955L57.2154 42.0118H57.1533L57.2253 41.8914H57.5556L57.5854 41.8531H57.4215L57.4736 41.7728H57.3892L57.4935 41.6141H57.8734L57.9355 41.5261C57.9355 41.5261 57.943 41.5161 57.9579 41.4956H57.5953C57.6102 41.4855 57.6239 41.4726 57.6375 41.4573C57.6506 41.4411 57.668 41.4267 57.6897 41.4152H58.2137C58.2484 41.3899 58.2931 41.3694 58.3478 41.3541C58.4024 41.3378 58.4645 41.3292 58.534 41.3292H60.471C60.5604 41.3292 60.6256 41.3579 60.6672 41.4152H60.1407ZM56.9993 43.0826L57.0515 43.0023H56.823L56.8454 42.9621H56.5051L56.5349 43.0023H56.3189L56.371 43.0826H56.9993Z" fill="#FFBD59"/>
</svg>
